<svg xmlns="http://www.w3.org/2000/svg" width="373" height="377" viewBox="0 0 373 377">
  <defs>
    <style>
      .cls-1 {
        fill: #bfe79e;
        fill-rule: evenodd;
      }
    </style>
  </defs>
  <path id="Shape_3_copy" data-name="Shape 3 copy" class="cls-1" d="M1501,1358l-374,1,11,10-10,10,10,12-10,11,12,12-13,11,12,11-11,11,10,10-11,11,12,12-12,9,11,12-10,11,10,12-11,12,11,11-10,11,10,12-11,11,10,11-9,9,10,12-11,11,11,12-11,12,11,11-10,10,10,10-10,11,10,11-10,12,11,10-12,12h373Z" transform="translate(-1127 -1358)"/>
</svg>
