<svg xmlns="http://www.w3.org/2000/svg" width="372" height="377" viewBox="0 0 372 377">
  <defs>
    <style>
      .cls-1 {
        fill: #7dd5c9;
        fill-rule: evenodd;
      }
    </style>
  </defs>
  <path id="_background_bleu_à_gauche" data-name="&lt;background&gt; bleu à gauche" class="cls-1" d="M-2,660l374,1-11,10,10,10-10,12,10,11-12,12,13,11-12,11,11,11-10,10,11,11-12,12,12,9-11,12,10,11-10,12,11,12-11,11,10,11-10,12,11,11-10,11,9,9-10,12,11,11-11,12,11,12-11,11,10,10-10,10,10,11-10,11,10,12-11,10,12,12H-1Z" transform="translate(0 -660)"/>
</svg>
