<svg xmlns="http://www.w3.org/2000/svg" width="374" height="377" viewBox="0 0 374 377">
  <defs>
    <style>
      .cls-1 {
        fill: #f8c255;
        fill-rule: evenodd;
      }
    </style>
  </defs>
  <path id="Shape_3_copy_2" data-name="Shape 3 copy 2" class="cls-1" d="M0,1737l374,1-11,10,10,10-10,12,10,11-12,12,13,11-12,11,11,11-10,10,11,11-12,12,12,9-11,12,10,11-10,12,11,12-11,11,10,11-10,12,11,11-10,11,9,9-10,12,11,11-11,12,11,12-11,11,10,10-10,10,10,11-10,11,10,12-11,10,12,12H1Z" transform="translate(0 -1737)"/>
</svg>
